<svg width="40" height="41" viewBox="0 0 40 41" fill="none" xmlns="http://www.w3.org/2000/svg">
<path fill-rule="evenodd" clip-rule="evenodd" d="M0.0203513 20.5451C0.0203513 25.7137 2.03562 30.4567 5.31297 34.0038V20.5451V16.4507H15.8982H18.8702H20.0102C22.2494 16.4507 24.1221 18.3155 24.1221 20.5451C24.1221 22.7747 22.2494 24.6395 20.0102 24.6395C17.771 24.6395 15.8982 22.7747 15.8982 20.5451H10.6056V31.7742V38.0981C12.2544 38.9697 14.0254 39.6386 15.8982 40.0237C17.2214 40.3074 18.6056 40.4493 20.0102 40.4493C31.0025 40.4493 40 31.4904 40 20.5451C40 9.5998 31.0025 0.640869 20.0102 0.640869H0.0203513V5.91083H5.31297H16.1221H20.0102C28.0916 5.91083 34.7074 12.4983 34.7074 20.5451C34.7074 28.5919 28.0916 35.1794 20.0102 35.1794C18.5852 35.1794 17.201 34.9767 15.8982 34.5916V28.9568C17.1399 29.5648 18.5445 29.9094 20.0102 29.9094C25.1603 29.9094 29.4148 25.6732 29.4148 20.5451C29.4148 15.417 25.1603 11.1808 20.0102 11.1808H16.1018H5.29262H0V12.701V20.5451H0.0203513Z" fill="#F94C30"/>
</svg>
